<svg width="25" height="17" viewBox="0 0 25 17" fill="none" xmlns="http://www.w3.org/2000/svg">
<path d="M24.4808 0.701026C24.3148 0.478895 24.1173 0.302584 23.8997 0.182265C23.6822 0.0619457 23.4488 0 23.2131 0C22.9774 0 22.744 0.0619457 22.5264 0.182265C22.3088 0.302584 22.1113 0.478895 21.9454 0.701026L13.7677 11.5554C13.6017 11.7775 13.4042 11.9538 13.1867 12.0741C12.9691 12.1945 12.7357 12.2564 12.5 12.2564C12.2643 12.2564 12.0309 12.1945 11.8133 12.0741C11.5958 11.9538 11.3983 11.7775 11.2323 11.5554L3.05464 0.701026C2.88865 0.478895 2.69117 0.302584 2.47359 0.182265C2.25601 0.0619457 2.02264 0 1.78693 0C1.55122 0 1.31784 0.0619457 1.10026 0.182265C0.882679 0.302584 0.6852 0.478895 0.519213 0.701026C0.18666 1.14506 0 1.74573 0 2.37184C0 2.99794 0.18666 3.59861 0.519213 4.04265L8.71471 14.9207C9.71907 16.2521 11.0805 17 12.5 17C13.9195 17 15.2809 16.2521 16.2853 14.9207L24.4808 4.04265C24.8133 3.59861 25 2.99794 25 2.37184C25 1.74573 24.8133 1.14506 24.4808 0.701026Z" fill="#4C4C4C"/>
</svg>
