<svg width="48" height="48" viewBox="0 0 48 48" fill="none" xmlns="http://www.w3.org/2000/svg">
<g clip-path="url(#clip0_858_480)">
<path d="M26 1.99929C26 1.46885 26.2107 0.960147 26.5858 0.585074C26.9608 0.210001 27.4695 -0.000712315 28 -0.000712315C33.3025 0.00511088 38.3862 2.11412 42.1357 5.86358C45.8851 9.61305 47.9941 14.6967 48 19.9993C48 20.5297 47.7893 21.0384 47.4142 21.4135C47.0391 21.7886 46.5304 21.9993 46 21.9993C45.4695 21.9993 44.9608 21.7886 44.5858 21.4135C44.2107 21.0384 44 20.5297 44 19.9993C43.9952 15.7573 42.308 11.6904 39.3084 8.69084C36.3089 5.69129 32.242 4.00405 28 3.99929C27.4695 3.99929 26.9608 3.78857 26.5858 3.4135C26.2107 3.03843 26 2.52972 26 1.99929ZM28 11.9993C30.1217 11.9993 32.1565 12.8421 33.6568 14.3424C35.1571 15.8427 36 17.8776 36 19.9993C36 20.5297 36.2107 21.0384 36.5858 21.4135C36.9608 21.7886 37.4695 21.9993 38 21.9993C38.5304 21.9993 39.0391 21.7886 39.4142 21.4135C39.7893 21.0384 40 20.5297 40 19.9993C39.9968 16.8177 38.7315 13.7673 36.4817 11.5175C34.232 9.26777 31.1816 8.00246 28 7.99929C27.4695 7.99929 26.9608 8.21 26.5858 8.58507C26.2107 8.96015 26 9.46885 26 9.99929C26 10.5297 26.2107 11.0384 26.5858 11.4135C26.9608 11.7886 27.4695 11.9993 28 11.9993ZM46.186 33.4773C47.345 34.6395 47.9959 36.2139 47.9959 37.8553C47.9959 39.4967 47.345 41.0711 46.186 42.2333L44.366 44.3313C27.986 60.0133 -11.874 20.1633 3.56597 3.73129L5.86597 1.73129C7.02951 0.604642 8.58983 -0.0186142 10.2094 -0.00364263C11.8289 0.0113289 13.3775 0.663324 14.52 1.81129C14.582 1.87329 18.288 6.68729 18.288 6.68729C19.3876 7.84254 19.9998 9.37715 19.9972 10.9721C19.9946 12.567 19.3774 14.0996 18.274 15.2513L15.958 18.1633C17.2397 21.2775 19.1241 24.1078 21.503 26.4915C23.8819 28.8752 26.7083 30.7653 29.82 32.0533L32.75 29.7233C33.9018 28.6207 35.4341 28.0043 37.0286 28.002C38.623 27.9998 40.1571 28.6119 41.312 29.7113C41.312 29.7113 46.124 33.4153 46.186 33.4773ZM43.434 36.3853C43.434 36.3853 38.648 32.7033 38.586 32.6413C38.1739 32.2327 37.6172 32.0035 37.037 32.0035C36.4567 32.0035 35.9 32.2327 35.488 32.6413C35.434 32.6973 31.4 35.9113 31.4 35.9113C31.1281 36.1277 30.8046 36.2695 30.4613 36.3228C30.1179 36.3761 29.7666 36.3391 29.442 36.2153C25.4109 34.7144 21.7494 32.3648 18.7056 29.3254C15.6618 26.2861 13.3068 22.6282 11.8 18.5993C11.6664 18.2702 11.6228 17.9115 11.6738 17.56C11.7247 17.2085 11.8684 16.8769 12.09 16.5993C12.09 16.5993 15.304 12.5633 15.358 12.5113C15.7665 12.0993 15.9957 11.5425 15.9957 10.9623C15.9957 10.3821 15.7665 9.82532 15.358 9.41329C15.296 9.35329 11.614 4.56329 11.614 4.56329C11.1958 4.1883 10.65 3.98748 10.0885 4.00198C9.52695 4.01648 8.99226 4.24521 8.59397 4.64129L6.29397 6.64129C-4.99003 20.2093 29.552 52.8353 41.442 41.5993L43.264 39.4993C43.6909 39.1038 43.9474 38.5578 43.9791 37.9767C44.0108 37.3956 43.8153 36.8249 43.434 36.3853Z" fill="#4C4C4C"/>
</g>
<defs>
<clipPath id="clip0_858_480">
<rect width="48" height="48" fill="white"/>
</clipPath>
</defs>
</svg>
