<svg width="59" height="50" viewBox="0 0 59 50" fill="none" xmlns="http://www.w3.org/2000/svg">
<path d="M46.7083 2.08594H12.2917C9.03291 2.08925 5.90875 3.18778 3.60446 5.14056C1.30017 7.09335 0.00390348 9.74095 0 12.5026L0 37.5026C0.00390348 40.2643 1.30017 42.9119 3.60446 44.8647C5.90875 46.8174 9.03291 47.916 12.2917 47.9193H46.7083C49.9671 47.916 53.0913 46.8174 55.3955 44.8647C57.6998 42.9119 58.9961 40.2643 59 37.5026V12.5026C58.9961 9.74095 57.6998 7.09335 55.3955 5.14056C53.0913 3.18778 49.9671 2.08925 46.7083 2.08594ZM12.2917 6.2526H46.7083C48.1803 6.25506 49.6178 6.63076 50.8358 7.33136C52.0537 8.03197 52.9964 9.02541 53.5425 10.1839L34.7166 26.1401C33.3311 27.3095 31.4554 27.9661 29.5 27.9661C27.5446 27.9661 25.6689 27.3095 24.2834 26.1401L5.4575 10.1839C6.00362 9.02541 6.9463 8.03197 8.16424 7.33136C9.38218 6.63076 10.8197 6.25506 12.2917 6.2526ZM46.7083 43.7526H12.2917C10.3357 43.7526 8.45984 43.0941 7.07675 41.922C5.69367 40.7499 4.91667 39.1602 4.91667 37.5026V15.6276L20.8073 29.0859C23.1148 31.0365 26.2409 32.1319 29.5 32.1319C32.7591 32.1319 35.8852 31.0365 38.1927 29.0859L54.0833 15.6276V37.5026C54.0833 39.1602 53.3063 40.7499 51.9232 41.922C50.5402 43.0941 48.6643 43.7526 46.7083 43.7526Z" fill="#4C4C4C"/>
</svg>
