<svg width="102" height="102" viewBox="0 0 102 102" fill="none" xmlns="http://www.w3.org/2000/svg">
<g clip-path="url(#clip0_858_408)">
<path d="M0.263504 45.2795L13.3152 9.85575C15.113 4.964 20.2598 2.2865 25.3173 3.6295L46.75 9.34575V4.25C46.75 1.904 48.654 0 51 0C53.346 0 55.25 1.904 55.25 4.25V11.611L77.5795 17.5653C82.9132 18.989 87.2397 22.933 89.1523 28.1137L101.736 62.2795C101.911 62.7513 102 65.0293 102 65.0293C102 75.6797 93.5 84.9958 82.8623 84.9958C77.9408 84.9958 73.304 83.1513 69.7127 79.7428C65.926 76.1473 63.7543 71.0898 63.7543 65.8708C63.7543 65.8708 63.8435 62.7597 64.0093 62.2922L77.0525 26.418C76.5255 26.1502 75.9688 25.9335 75.3865 25.7805L55.25 20.4085V93.5H80.75C83.096 93.5 85 95.404 85 97.75C85 100.096 83.096 102 80.75 102H21.25C18.904 102 17 100.096 17 97.75C17 95.404 18.904 93.5 21.25 93.5H46.75V18.139L25.942 12.5885L37.9865 45.2752C38.1607 45.747 38.25 48.025 38.25 48.025C38.25 58.6755 30.2982 67.4347 20.145 67.966C14.8367 68.2465 9.8005 66.3893 5.9585 62.7427C2.17175 59.1472 0 54.0897 0 48.8707C0 48.8707 0.0892487 45.747 0.263504 45.2752V45.2795ZM83.453 76.4873C88.0473 76.245 91.8935 72.6537 93.0835 68H72.4625C72.8875 70.1208 73.95 72.0545 75.5607 73.5802C77.6942 75.6117 80.512 76.6615 83.4488 76.483L83.453 76.4873ZM74.069 59.5H91.6555L82.8027 35.4748L74.069 59.5ZM19.125 18.6702L10.3445 42.5H27.9055L19.125 18.6702ZM19.703 59.4872C24.2972 59.245 28.1435 55.6538 29.3335 51H8.71675C9.14175 53.1208 10.2043 55.0545 11.815 56.5802C13.9485 58.6117 16.7663 59.6402 19.703 59.4872Z" fill="#4C4C4C"/>
</g>
<defs>
<clipPath id="clip0_858_408">
<rect width="102" height="102" fill="white" transform="matrix(-1 0 0 1 102 0)"/>
</clipPath>
</defs>
</svg>
