<svg width="102" height="102" viewBox="0 0 102 102" fill="none" xmlns="http://www.w3.org/2000/svg">
<g clip-path="url(#clip0_858_416)">
<path d="M51.221 102.039L52.7255 101.372C54.4 100.637 93.5 82.9778 93.5 51.0008V23.2738C93.4985 20.6055 92.6552 18.0058 91.0901 15.8447C89.525 13.6836 87.3179 12.0715 84.7832 11.2378L51 0.0390625L17.2167 11.2378C14.682 12.0715 12.475 13.6836 10.9099 15.8447C9.34482 18.0058 8.50148 20.6055 8.49999 23.2738V51.0008C8.49999 87.4531 47.974 100.96 49.657 101.521L51.221 102.039ZM51 8.95131L82.093 19.2618C82.939 19.5381 83.6758 20.0751 84.198 20.7957C84.7202 21.5164 85.0009 22.3838 85 23.2738V51.0008C85 74.3503 57.63 89.4973 50.8002 92.9101C43.9832 90.1688 17 77.6186 17 51.0008V23.2738C16.9991 22.3838 17.2798 21.5164 17.802 20.7957C18.3242 20.0751 19.061 19.5381 19.907 19.2618L51 8.95131Z" fill="#4C4C4C"/>
<path d="M54.7785 61.8052H54.9188C55.9945 61.7887 57.0557 61.5542 58.0382 61.1159C59.0207 60.6776 59.9042 60.0446 60.635 59.2552L70.4355 49.0552L64.3113 43.1817L54.7743 53.1267L32.7551 31.1074L26.7455 37.1169L49.1048 59.4762C49.8495 60.2203 50.7345 60.8093 51.7084 61.209C52.6823 61.6088 53.7258 61.8114 54.7785 61.8052Z" fill="#4C4C4C"/>
</g>
<defs>
<clipPath id="clip0_858_416">
<rect width="102" height="102" fill="white" transform="matrix(-1 0 0 1 102 0)"/>
</clipPath>
</defs>
</svg>
