<svg width="102" height="102" viewBox="0 0 102 102" fill="none" xmlns="http://www.w3.org/2000/svg">
<g clip-path="url(#clip0_858_448)">
<path d="M51 0C37.4784 0.0146246 24.5149 5.39252 14.9537 14.9537C5.39252 24.5149 0.0146246 37.4784 0 51C2.55 118.575 99.45 118.545 102 51C101.985 37.4784 96.6075 24.5149 87.0463 14.9537C77.4851 5.39252 64.5216 0.0146246 51 0ZM51 93.5C39.7321 93.4876 28.9292 89.006 20.9616 81.0384C12.994 73.0708 8.51237 62.2679 8.5 51C10.625 -5.304 91.375 -5.287 93.5 51C93.4876 62.2679 89.006 73.0708 81.0384 81.0384C73.0708 89.006 62.2679 93.4876 51 93.5ZM29.75 40.375C29.75 38.6842 30.4216 37.0627 31.6172 35.8672C32.8127 34.6716 34.4342 34 36.125 34C37.8158 34 39.4373 34.6716 40.6328 35.8672C41.8284 37.0627 42.5 38.6842 42.5 40.375C42.5 42.0658 41.8284 43.6873 40.6328 44.8828C39.4373 46.0784 37.8158 46.75 36.125 46.75C34.4342 46.75 32.8127 46.0784 31.6172 44.8828C30.4216 43.6873 29.75 42.0658 29.75 40.375ZM59.5 40.375C59.5 38.6842 60.1716 37.0627 61.3672 35.8672C62.5627 34.6716 64.1842 34 65.875 34C67.5658 34 69.1873 34.6716 70.3828 35.8672C71.5783 37.0627 72.25 38.6842 72.25 40.375C72.25 42.0658 71.5783 43.6873 70.3828 44.8828C69.1873 46.0784 67.5658 46.75 65.875 46.75C64.1842 46.75 62.5627 46.0784 61.3672 44.8828C60.1716 43.6873 59.5 42.0658 59.5 40.375ZM75.8285 66.0535C73.3313 70.4559 69.726 74.1285 65.3705 76.7066C61.015 79.2847 56.0608 80.6787 51 80.75C45.9356 80.6793 40.9777 79.2859 36.618 76.7079C32.2583 74.13 28.6483 70.4571 26.146 66.0535C25.6942 65.3482 25.4608 64.5251 25.4752 63.6876C25.4897 62.8501 25.7512 62.0356 26.2271 61.3463C26.703 60.657 27.372 60.1237 28.15 59.8133C28.928 59.503 29.7803 59.4295 30.6 59.602C37.1352 62.0642 44.0223 63.4645 51 63.75C57.9663 63.4609 64.8416 62.0606 71.366 59.602C72.1863 59.4273 73.0399 59.4992 73.8194 59.8087C74.5989 60.1181 75.2694 60.6513 75.7466 61.3411C76.2237 62.0308 76.486 62.8463 76.5006 63.6849C76.5152 64.5234 76.2813 65.3476 75.8285 66.0535Z" fill="#4C4C4C"/>
</g>
<defs>
<clipPath id="clip0_858_448">
<rect width="102" height="102" fill="white"/>
</clipPath>
</defs>
</svg>
