<svg width="102" height="102" viewBox="0 0 102 102" fill="none" xmlns="http://www.w3.org/2000/svg">
<g clip-path="url(#clip0_858_410)">
<path d="M63.75 102H97.75C98.8772 102 99.9582 101.552 100.755 100.755C101.552 99.9582 102 98.8772 102 97.75C102 96.6228 101.552 95.5418 100.755 94.7448C99.9582 93.9478 98.8772 93.5 97.75 93.5H63.75C62.6228 93.5 61.5418 93.9478 60.7448 94.7448C59.9478 95.5418 59.5 96.6228 59.5 97.75C59.5 98.8772 59.9478 99.9582 60.7448 100.755C61.5418 101.552 62.6228 102 63.75 102Z" fill="#4C4C4C"/>
<path d="M72.25 85H97.75C98.8772 85 99.9582 84.5522 100.755 83.7552C101.552 82.9582 102 81.8772 102 80.75C102 79.6228 101.552 78.5418 100.755 77.7448C99.9582 76.9478 98.8772 76.5 97.75 76.5H72.25C71.1228 76.5 70.0418 76.9478 69.2448 77.7448C68.4478 78.5418 68 79.6228 68 80.75C68 81.8772 68.4478 82.9582 69.2448 83.7552C70.0418 84.5522 71.1228 85 72.25 85Z" fill="#4C4C4C"/>
<path d="M80.75 68H97.75C98.8772 68 99.9582 67.5522 100.755 66.7552C101.552 65.9582 102 64.8772 102 63.75C102 62.6228 101.552 61.5418 100.755 60.7448C99.9582 59.9478 98.8772 59.5 97.75 59.5H80.75C79.6228 59.5 78.5418 59.9478 77.7448 60.7448C76.9478 61.5418 76.5 62.6228 76.5 63.75C76.5 64.8772 76.9478 65.9582 77.7448 66.7552C78.5418 67.5522 79.6228 68 80.75 68Z" fill="#4C4C4C"/>
<path d="M46.7496 101.808C47.8768 101.858 48.9777 101.458 49.8102 100.697C50.6427 99.9353 51.1386 98.8742 51.1887 97.7471C51.2389 96.6199 50.8392 95.519 50.0776 94.6865C49.3161 93.854 48.255 93.3581 47.1278 93.3079C39.0849 92.572 31.4181 89.5596 25.0256 84.6234C18.633 79.6873 13.7793 73.0318 11.0329 65.4365C8.28655 57.8413 7.76125 49.6207 9.51854 41.7376C11.2758 33.8546 15.2429 26.6355 20.9552 20.9258C26.6675 15.2161 33.8885 11.2523 41.7723 9.49867C49.6562 7.74502 57.8765 8.2741 65.4705 11.024C73.0645 13.7738 79.7178 18.6306 84.651 25.0254C89.5842 31.4203 92.5931 39.0884 93.3253 47.1317C93.4268 48.2544 93.97 49.2907 94.8356 50.0128C95.7012 50.735 96.8182 51.0836 97.9408 50.9822C99.0635 50.8808 100.1 50.3375 100.822 49.4719C101.544 48.6063 101.893 47.4894 101.791 46.3667C100.606 33.2908 94.4235 21.1757 84.5307 12.5434C74.6379 3.91104 61.797 -0.57342 48.681 0.023482C35.565 0.620384 23.1845 6.25265 14.1167 15.7479C5.04882 25.2431 -0.00773621 37.8697 -0.000411987 50.9992C-0.0655518 63.7421 4.6685 76.0427 13.26 85.454C21.8516 94.8653 33.6709 100.698 46.3671 101.791C46.4946 101.804 46.6263 101.808 46.7496 101.808Z" fill="#4C4C4C"/>
<path d="M51 25.5C52.1272 25.5 53.2082 25.9478 54.0052 26.7448C54.8022 27.5418 55.25 28.6228 55.25 29.75V51C55.2498 52.1271 54.8018 53.2079 54.0047 54.0047L41.2547 66.7547C40.4532 67.5289 39.3796 67.9573 38.2653 67.9476C37.151 67.9379 36.085 67.491 35.297 66.703C34.509 65.915 34.0621 64.849 34.0524 63.7347C34.0427 62.6204 34.4711 61.5468 35.2453 60.7453L46.75 49.2405V29.75C46.75 28.6228 47.1978 27.5418 47.9948 26.7448C48.7918 25.9478 49.8728 25.5 51 25.5Z" fill="#4C4C4C"/>
</g>
<defs>
<clipPath id="clip0_858_410">
<rect width="102" height="102" fill="white" transform="matrix(-1 0 0 1 102 0)"/>
</clipPath>
</defs>
</svg>
